<svg width="1000" height="1000" viewBox="0 0 1000 1000" fill="none" xmlns="http://www.w3.org/2000/svg">
<path d="M669.166 232.415L856.875 150.827V241.544L693.804 339.044L693.815 339.107H761.024L835.194 663.746L761.024 743.622L685.141 681.433L588.149 849.172L578.45 709.96L677.154 551.349L740.484 612.397L693.815 339.107H693.7L693.804 339.044L677.154 241.544H669.166L633.792 371.628L502.567 449.792L369.06 371.628L331.975 241.544L323.987 252.384L260.657 612.397L323.987 551.349L424.403 709.96L414.704 849.172L316 681.433L238.976 743.622L165.947 663.746L238.976 339.107H298.313L143.125 241.544V150.827L502.567 303.733L669.166 232.415Z" fill="#292929"/>
</svg>
