<svg width="1251" height="1251" viewBox="0 0 1251 1251" fill="none" xmlns="http://www.w3.org/2000/svg">
<rect width="1251" height="1251" rx="625.5" fill="white"/>
<path d="M806.284 339.535L1006.89 252.343V349.29L832.614 453.488L832.626 453.555H904.451L983.717 800.494L904.451 885.857L823.357 819.396L719.702 998.657L709.337 849.882L814.82 680.376L882.501 745.618L832.626 453.555H832.503L832.614 453.488L814.82 349.29H806.284L768.481 488.31L628.242 571.843L485.564 488.31L445.931 349.29L437.395 360.875L369.715 745.618L437.395 680.376L544.708 849.882L534.343 998.657L428.859 819.396L346.545 885.857L268.499 800.494L346.545 453.555H409.957L244.109 349.29V252.343L628.242 415.752L806.284 339.535Z" fill="#292929"/>
</svg>
